<svg width="20" height="20" viewBox="0 0 20 20" fill="none" xmlns="http://www.w3.org/2000/svg">
<g opacity="0.15">
<rect x="4.53223" y="5.59912" width="1.51032" height="7.55162" rx="0.755162" transform="rotate(-45 4.53223 5.59912)" fill="#D9CECE"/>
<rect x="13.5908" y="5.59912" width="1.51032" height="7.55162" rx="0.755162" transform="rotate(-45 13.5908 5.59912)" fill="#D9CECE"/>
<rect x="4.53223" y="14.6606" width="1.51032" height="7.55162" rx="0.755162" transform="rotate(-45 4.53223 14.6606)" fill="#D9CECE"/>
<rect x="13.5908" y="14.6606" width="1.51032" height="7.55162" rx="0.755162" transform="rotate(-45 13.5908 14.6606)" fill="#D9CECE"/>
<rect x="14.4004" y="9.06201" width="1.51032" height="7.55162" rx="0.755162" transform="rotate(45 14.4004 9.06201)" fill="#D9CECE"/>
<rect x="5.33984" y="9.06201" width="1.51032" height="7.55162" rx="0.755162" transform="rotate(45 5.33984 9.06201)" fill="#D9CECE"/>
<rect x="5.33984" width="1.51032" height="7.55162" rx="0.755162" transform="rotate(45 5.33984 0)" fill="#D9CECE"/>
<rect x="14.4004" width="1.51032" height="7.55162" rx="0.755162" transform="rotate(45 14.4004 0)" fill="#D9CECE"/>
</g>
</svg>
