<svg width="20" height="20" viewBox="0 0 20 20" fill="none" xmlns="http://www.w3.org/2000/svg">
<g opacity="0.12">
<path d="M6.13416 5.06514C5.83926 4.77023 5.36111 4.77023 5.06621 5.06514C4.7713 5.36005 4.7713 5.83819 5.06621 6.1331L9.33805 10.4049C9.63296 10.6999 10.1111 10.6999 10.406 10.4049C10.7009 10.11 10.7009 9.63189 10.406 9.33699L6.13416 5.06514Z" fill="#B89B9B"/>
<path d="M15.1927 5.06514C14.8978 4.77023 14.4197 4.77023 14.1248 5.06514C13.8299 5.36005 13.8299 5.83819 14.1248 6.1331L18.3966 10.4049C18.6915 10.6999 19.1697 10.6999 19.4646 10.4049C19.7595 10.11 19.7595 9.63189 19.4646 9.33699L15.1927 5.06514Z" fill="#B89B9B"/>
<path d="M6.13416 14.1267C5.83926 13.8318 5.36111 13.8318 5.06621 14.1267C4.7713 14.4216 4.7713 14.8997 5.06621 15.1946L9.33805 19.4665C9.63296 19.7614 10.1111 19.7614 10.406 19.4665C10.7009 19.1716 10.7009 18.6934 10.406 18.3985L6.13416 14.1267Z" fill="#B89B9B"/>
<path d="M15.1927 14.1267C14.8978 13.8318 14.4197 13.8318 14.1248 14.1267C13.8299 14.4216 13.8299 14.8997 14.1248 15.1946L18.3966 19.4665C18.6915 19.7614 19.1697 19.7614 19.4646 19.4665C19.7595 19.1716 19.7595 18.6934 19.4646 18.3985L15.1927 14.1267Z" fill="#B89B9B"/>
<path d="M14.9344 10.6639C15.2293 10.369 15.2293 9.8909 14.9344 9.59599C14.6395 9.30108 14.1613 9.30108 13.8664 9.59599L9.59457 13.8678C9.29966 14.1627 9.29966 14.6409 9.59457 14.9358C9.88948 15.2307 10.3676 15.2307 10.6625 14.9358L14.9344 10.6639Z" fill="#B89B9B"/>
<path d="M5.87382 10.6639C6.16873 10.369 6.16873 9.8909 5.87382 9.59599C5.57891 9.30108 5.10077 9.30108 4.80586 9.59599L0.534022 13.8678C0.239113 14.1627 0.239112 14.6409 0.53402 14.9358C0.828929 15.2307 1.30707 15.2307 1.60198 14.9358L5.87382 10.6639Z" fill="#B89B9B"/>
<path d="M5.87382 1.60194C6.16873 1.30703 6.16873 0.828887 5.87382 0.533979C5.57891 0.23907 5.10077 0.239071 4.80586 0.53398L0.534022 4.80582C0.239113 5.10073 0.239112 5.57887 0.534021 5.87378C0.828929 6.16869 1.30707 6.16869 1.60198 5.87378L5.87382 1.60194Z" fill="#B89B9B"/>
<path d="M14.9344 1.60194C15.2293 1.30703 15.2293 0.828887 14.9344 0.533978C14.6395 0.23907 14.1613 0.239071 13.8664 0.53398L9.59457 4.80582C9.29966 5.10073 9.29966 5.57887 9.59457 5.87378C9.88948 6.16869 10.3676 6.16869 10.6625 5.87378L14.9344 1.60194Z" fill="#B89B9B"/>
</g>
</svg>
