<svg width="61" height="61" viewBox="0 0 61 61" fill="none" xmlns="http://www.w3.org/2000/svg">
<path d="M48.6085 30.4994C50.5165 30.4994 52.0915 32.0559 51.7872 33.9395C51.7223 34.3412 51.646 34.7408 51.5585 35.1381C51.1481 37.0015 49.1107 37.8689 47.3366 37.1665V37.1665C43.7934 35.7637 44.7976 30.4994 48.6085 30.4994V30.4994Z" fill="#232320"/>
<path d="M47.9942 35.186C49.8372 35.6799 50.9557 37.591 50.1742 39.3317C50.0076 39.7028 49.8305 40.0691 49.6431 40.4302C48.7644 42.1239 46.572 42.4344 45.0401 41.2968V41.2968C41.9808 39.0247 44.3132 34.1997 47.9942 35.186V35.186Z" fill="#232320"/>
<path d="M46.1837 39.555C47.8361 40.509 48.4219 42.6445 47.2165 44.1236C46.9595 44.4389 46.6936 44.747 46.4191 45.0473C45.132 46.4558 42.9339 46.1883 41.7487 44.693V44.693C39.3816 41.7065 42.8834 37.6496 46.1837 39.555V39.555Z" fill="#232320"/>
<path d="M43.3054 43.3051C44.6546 44.6543 44.6677 46.8686 43.1206 47.9853C42.7907 48.2234 42.4542 48.4521 42.1114 48.6712C40.5035 49.6986 38.4495 48.8713 37.6918 47.1201V47.1201C36.1783 43.6227 40.6108 40.6104 43.3054 43.3051V43.3051Z" fill="#232320"/>
<path d="M39.5554 46.1841C40.5094 47.8365 39.949 49.9788 38.1655 50.657C37.7853 50.8016 37.401 50.9354 37.0132 51.0583C35.1942 51.6345 33.4244 50.3038 33.1456 48.4162V48.4162C32.5889 44.6463 37.65 42.8838 39.5554 46.1841V46.1841Z" fill="#232320"/>
<path d="M35.1871 47.9924C35.681 49.8355 34.5852 51.7597 32.687 51.9532C32.2822 51.9945 31.8764 52.0243 31.47 52.0426C29.5639 52.1284 28.1987 50.385 28.4181 48.4895V48.4895C28.8561 44.704 34.2008 44.3115 35.1871 47.9924V47.9924Z" fill="#232320"/>
<path d="M30.4996 48.6104C30.4996 50.5185 28.9431 52.0935 27.0595 51.7891C26.6579 51.7242 26.2582 51.648 25.8609 51.5605C23.9975 51.1501 23.1301 49.1127 23.8325 47.3386V47.3386C25.2354 43.7954 30.4996 44.7996 30.4996 48.6104V48.6104Z" fill="#232320"/>
<path d="M25.811 47.9932C25.3172 49.8363 23.4061 50.9548 21.6654 50.1732C21.2943 50.0066 20.9279 49.8295 20.5668 49.6422C18.8732 48.7634 18.5626 46.571 19.7003 45.0392V45.0392C21.9724 41.9798 26.7973 44.3123 25.811 47.9932V47.9932Z" fill="#232320"/>
<path d="M21.444 46.1837C20.49 47.8361 18.3545 48.4219 16.8754 47.2165C16.5601 46.9595 16.2521 46.6936 15.9517 46.4191C14.5432 45.132 14.8107 42.9339 16.3061 41.7487V41.7487C19.2926 39.3816 23.3494 42.8834 21.444 46.1837V46.1837Z" fill="#232320"/>
<path d="M17.6949 43.3054C16.3457 44.6546 14.1314 44.6677 13.0147 43.1206C12.7766 42.7907 12.5479 42.4542 12.3288 42.1114C11.3014 40.5035 12.1287 38.4495 13.8799 37.6918V37.6918C17.3773 36.1783 20.3896 40.6108 17.6949 43.3054V43.3054Z" fill="#232320"/>
<path d="M14.8149 39.5544C13.1625 40.5085 11.0203 39.948 10.342 38.1645C10.1974 37.7843 10.0636 37.4 9.94076 37.0122C9.36449 35.1932 10.6952 33.4234 12.5828 33.1446V33.1446C16.3527 32.5879 18.1152 37.649 14.8149 39.5544V39.5544Z" fill="#232320"/>
<path d="M13.0046 35.1871C11.1616 35.681 9.23739 34.5852 9.04387 32.687C9.00261 32.2822 8.9728 31.8764 8.9545 31.47C8.86865 29.5639 10.6121 28.1988 12.5075 28.4181V28.4181C16.2931 28.8561 16.6856 34.2008 13.0046 35.1871V35.1871Z" fill="#232320"/>
<path d="M12.3886 30.4986C10.4806 30.4986 8.90555 28.9421 9.20992 27.0585C9.27481 26.6569 9.35106 26.2572 9.43856 25.8599C9.84898 23.9965 11.8864 23.1291 13.6604 23.8315V23.8315C17.2036 25.2344 16.1994 30.4986 12.3886 30.4986V30.4986Z" fill="#232320"/>
<path d="M13.0058 25.812C11.1628 25.3182 10.0443 23.4071 10.8258 21.6664C10.9924 21.2953 11.1695 20.9289 11.3569 20.5678C12.2356 18.8741 14.428 18.5636 15.9599 19.7012V19.7012C19.0193 21.9733 16.6868 26.7983 13.0058 25.812V25.812Z" fill="#232320"/>
<path d="M14.8153 21.444C13.1629 20.49 12.5772 18.3545 13.7826 16.8754C14.0396 16.5601 14.3054 16.2521 14.5799 15.9517C15.867 14.5432 18.0651 14.8107 19.2503 16.3061V16.3061C21.6174 19.2926 18.1156 23.3494 14.8153 21.444V21.444Z" fill="#232320"/>
<path d="M17.6926 17.692C16.3434 16.3428 16.3303 14.1285 17.8775 13.0118C18.2073 12.7737 18.5439 12.545 18.8867 12.3259C20.4945 11.2985 22.5485 12.1258 23.3063 13.8769V13.8769C24.8197 17.3743 20.3873 20.3866 17.6926 17.692V17.692Z" fill="#232320"/>
<path d="M21.4436 14.8149C20.4896 13.1625 21.05 11.0203 22.8335 10.342C23.2137 10.1974 23.598 10.0636 23.9858 9.94076C25.8048 9.36449 27.5747 10.6952 27.8534 12.5828V12.5828C28.4101 16.3527 23.349 18.1152 21.4436 14.8149V14.8149Z" fill="#232320"/>
<path d="M25.8129 13.0056C25.319 11.1626 26.4148 9.23837 28.313 9.04485C28.7178 9.00359 29.1236 8.97378 29.53 8.95548C31.4361 8.86963 32.8013 10.6131 32.5819 12.5085V12.5085C32.1439 16.2941 26.7992 16.6866 25.8129 13.0056V13.0056Z" fill="#232320"/>
<path d="M30.4975 12.3876C30.4975 10.4796 32.054 8.90457 33.9376 9.20894C34.3392 9.27383 34.7389 9.35008 35.1362 9.43758C36.9996 9.848 37.867 11.8854 37.1646 13.6595V13.6595C35.7617 17.2027 30.4975 16.1984 30.4975 12.3876V12.3876Z" fill="#232320"/>
<path d="M35.186 13.0058C35.6799 11.1628 37.591 10.0443 39.3317 10.8258C39.7028 10.9924 40.0691 11.1695 40.4302 11.3569C42.1239 12.2356 42.4344 14.428 41.2968 15.9599V15.9599C39.0247 19.0193 34.1997 16.6868 35.186 13.0058V13.0058Z" fill="#232320"/>
<path d="M39.555 14.8144C40.509 13.1619 42.6445 12.5762 44.1236 13.7816C44.4389 14.0386 44.747 14.3045 45.0473 14.5789C46.4558 15.866 46.1883 18.0642 44.693 19.2493V19.2493C41.7065 21.6164 37.6496 18.1146 39.555 14.8144V14.8144Z" fill="#232320"/>
<path d="M43.3051 17.6926C44.6543 16.3434 46.8686 16.3303 47.9853 17.8775C48.2234 18.2073 48.4521 18.5439 48.6712 18.8867C49.6986 20.4945 48.8713 22.5485 47.1201 23.3063V23.3063C43.6227 24.8197 40.6104 20.3873 43.3051 17.6926V17.6926Z" fill="#232320"/>
<path d="M46.1841 21.4436C47.8365 20.4896 49.9788 21.05 50.657 22.8335C50.8016 23.2137 50.9354 23.598 51.0583 23.9858C51.6345 25.8048 50.3038 27.5747 48.4162 27.8534V27.8534C44.6463 28.4101 42.8838 23.349 46.1841 21.4436V21.4436Z" fill="#232320"/>
<path d="M47.9924 25.8119C49.8355 25.318 51.7597 26.4138 51.9532 28.3121C51.9945 28.7168 52.0243 29.1226 52.0426 29.529C52.1284 31.4351 50.3849 32.8003 48.4895 32.581V32.581C44.704 32.143 44.3115 26.7982 47.9924 25.8119V25.8119Z" fill="#232320"/>
<g filter="url(#filter0_ddii)">
<path d="M47.7845 30.5005C49.6051 30.5005 51.108 31.9857 50.8176 33.783C50.7556 34.1662 50.6829 34.5476 50.5994 34.9267C50.2078 36.7047 48.2638 37.5323 46.571 36.8621V36.8621C43.1901 35.5235 44.1483 30.5005 47.7845 30.5005V30.5005Z" fill="#292929"/>
<path d="M47.196 34.9729C48.9546 35.4441 50.0218 37.2676 49.2761 38.9285C49.1171 39.2827 48.9481 39.6322 48.7694 39.9768C47.9309 41.5929 45.8389 41.8891 44.3773 40.8036V40.8036C41.4581 38.6356 43.6837 34.0318 47.196 34.9729V34.9729Z" fill="#292929"/>
<path d="M45.4685 39.1417C47.0452 40.052 47.6041 42.0897 46.454 43.501C46.2087 43.8019 45.955 44.0958 45.6932 44.3823C44.465 45.7263 42.3676 45.4711 41.2368 44.0443V44.0443C38.9781 41.1946 42.3195 37.3236 45.4685 39.1417V39.1417Z" fill="#292929"/>
<path d="M42.7235 42.7192C44.0109 44.0066 44.0234 46.1194 42.5471 47.185C42.2324 47.4121 41.9112 47.6304 41.5841 47.8394C40.05 48.8197 38.0901 48.0303 37.3671 46.3594V46.3594C35.923 43.0223 40.1523 40.148 42.7235 42.7192V42.7192Z" fill="#292929"/>
<path d="M39.1447 45.467C40.0551 47.0438 39.5203 49.0878 37.8186 49.735C37.4557 49.873 37.0891 50.0007 36.719 50.1179C34.9834 50.6678 33.2946 49.398 33.0287 47.5969V47.5969C32.4975 43.9997 37.3266 42.318 39.1447 45.467V45.467Z" fill="#292929"/>
<path d="M34.9768 47.1925C35.448 48.9511 34.4024 50.7871 32.5912 50.9717C32.205 51.0111 31.8178 51.0395 31.43 51.057C29.6112 51.1389 28.3086 49.4753 28.5179 47.6668V47.6668C28.9358 44.0547 34.0357 43.6802 34.9768 47.1925V47.1925Z" fill="#292929"/>
<path d="M30.5044 47.7816C30.5044 49.6022 29.0192 51.1051 27.2219 50.8146C26.8387 50.7527 26.4573 50.68 26.0782 50.5965C24.3002 50.2049 23.4726 48.2608 24.1428 46.568V46.568C25.4814 43.1872 30.5044 44.1454 30.5044 47.7816V47.7816Z" fill="#292929"/>
<path d="M26.032 47.193C25.5608 48.9516 23.7373 50.0189 22.0763 49.2732C21.7222 49.1142 21.3727 48.9452 21.0281 48.7664C19.412 47.928 19.1157 45.836 20.2013 44.3743V44.3743C22.3692 41.4552 26.9731 43.6808 26.032 47.193V47.193Z" fill="#292929"/>
<path d="M21.8622 45.4656C20.9519 47.0423 18.9142 47.6012 17.5029 46.451C17.202 46.2058 16.9081 45.9521 16.6216 45.6903C15.2776 44.4621 15.5328 42.3647 16.9596 41.2338V41.2338C19.8093 38.9752 23.6803 42.3165 21.8622 45.4656V45.4656Z" fill="#292929"/>
<path d="M18.2818 42.7196C16.9944 44.007 14.8816 44.0195 13.816 42.5432C13.5888 42.2285 13.3706 41.9073 13.1616 41.5802C12.1813 40.0461 12.9707 38.0862 14.6416 37.3632V37.3632C17.9787 35.919 20.853 40.1484 18.2818 42.7196V42.7196Z" fill="#292929"/>
<path d="M15.5369 39.1399C13.9601 40.0502 11.9161 39.5154 11.2689 37.8137C11.1309 37.4508 11.0033 37.0842 10.886 36.7141C10.3362 34.9785 11.6059 33.2897 13.407 33.0238V33.0238C17.0042 32.4926 18.6859 37.3218 15.5369 39.1399V39.1399Z" fill="#292929"/>
<path d="M13.8124 34.9729C12.0538 35.4441 10.2178 34.3985 10.0331 32.5872C9.99377 32.2011 9.96534 31.8139 9.94787 31.4261C9.86595 29.6073 11.5295 28.3047 13.3381 28.514V28.514C16.9502 28.9319 17.3247 34.0318 13.8124 34.9729V34.9729Z" fill="#292929"/>
<path d="M13.2233 30.5005C11.4027 30.5005 9.89982 29.0153 10.1902 27.218C10.2522 26.8348 10.3249 26.4534 10.4084 26.0743C10.8 24.2963 12.7441 23.4687 14.4368 24.1389V24.1389C17.8177 25.4775 16.8595 30.5005 13.2233 30.5005V30.5005Z" fill="#292929"/>
<path d="M13.8118 26.0271C12.0533 25.5559 10.986 23.7324 11.7317 22.0715C11.8907 21.7173 12.0597 21.3678 12.2385 21.0232C13.0769 19.4071 15.1689 19.1109 16.6305 20.1964V20.1964C19.5497 22.3644 17.3241 26.9682 13.8118 26.0271V26.0271Z" fill="#292929"/>
<path d="M15.5383 21.8602C13.9616 20.9499 13.4027 18.9123 14.5529 17.501C14.7981 17.2001 15.0518 16.9062 15.3136 16.6196C16.5418 15.2756 18.6392 15.5309 19.7701 16.9577V16.9577C22.0287 19.8073 18.6874 23.6783 15.5383 21.8602V21.8602Z" fill="#292929"/>
<path d="M18.2843 18.2808C16.9969 16.9934 16.9844 14.8806 18.4607 13.815C18.7755 13.5879 19.0966 13.3696 19.4237 13.1606C20.9578 12.1803 22.9177 12.9697 23.6408 14.6406V14.6406C25.0849 17.9777 20.8555 20.852 18.2843 18.2808V18.2808Z" fill="#292929"/>
<path d="M21.8621 15.5349C20.9518 13.9582 21.4865 11.9141 23.1883 11.267C23.5511 11.129 23.9178 11.0013 24.2878 10.8841C26.0234 10.3342 27.7122 11.604 27.9782 13.4051V13.4051C28.5094 17.0022 23.6802 18.6839 21.8621 15.5349V15.5349Z" fill="#292929"/>
<path d="M26.031 13.8075C25.5598 12.0489 26.6054 10.2129 28.4167 10.0283C28.8028 9.98889 29.19 9.96046 29.5778 9.94299C31.3966 9.86107 32.6992 11.5247 32.49 13.3332V13.3332C32.072 16.9453 26.9722 17.3198 26.031 13.8075V13.8075Z" fill="#292929"/>
<path d="M30.5034 13.2194C30.5034 11.3988 31.9886 9.89592 33.7859 10.1863C34.1691 10.2483 34.5505 10.321 34.9296 10.4045C36.7076 10.7961 37.5352 12.7401 36.865 14.4329V14.4329C35.5264 17.8138 30.5034 16.8556 30.5034 13.2194V13.2194Z" fill="#292929"/>
<path d="M34.9739 13.8079C35.4451 12.0493 37.2686 10.9821 38.9295 11.7278C39.2836 11.8868 39.6332 12.0558 39.9778 12.2345C41.5938 13.073 41.8901 15.165 40.8046 16.6266V16.6266C38.6366 19.5458 34.0327 17.3202 34.9739 13.8079V13.8079Z" fill="#292929"/>
<path d="M39.1417 15.5334C40.052 13.9567 42.0897 13.3978 43.501 14.548C43.8019 14.7932 44.0958 15.0469 44.3823 15.3088C45.7263 16.5369 45.4711 18.6343 44.0443 19.7652V19.7652C41.1946 22.0238 37.3236 18.6825 39.1417 15.5334V15.5334Z" fill="#292929"/>
<path d="M42.7221 18.2804C44.0095 16.993 46.1223 16.9805 47.1879 18.4568C47.4151 18.7715 47.6333 19.0927 47.8423 19.4198C48.8226 20.9539 48.0332 22.9138 46.3623 23.6369V23.6369C43.0252 25.081 40.1509 20.8516 42.7221 18.2804V18.2804Z" fill="#292929"/>
<path d="M45.467 21.8592C47.0438 20.9488 49.0878 21.4836 49.735 23.1854C49.873 23.5482 50.0006 23.9148 50.1179 24.2849C50.6678 26.0205 49.398 27.7093 47.5969 27.9752V27.9752C43.9997 28.5064 42.318 23.6773 45.467 21.8592V21.8592Z" fill="#292929"/>
<path d="M47.1934 26.0281C48.952 25.5569 50.7881 26.6025 50.9727 28.4137C51.0121 28.7999 51.0405 29.1871 51.058 29.5749C51.1399 31.3937 49.4763 32.6963 47.6678 32.487V32.487C44.0557 32.0691 43.6812 26.9692 47.1934 26.0281V26.0281Z" fill="#292929"/>
</g>
<g filter="url(#filter1_ddii)">
<circle cx="30.4998" cy="30.4989" r="18.3729" fill="#EADB59"/>
</g>
<g filter="url(#filter2_ddi)">
<rect x="30.1318" y="13.9639" width="0.734916" height="9.5539" rx="0.367458" fill="#403A3A"/>
</g>
<g filter="url(#filter3_f)">
<path d="M39.7995 17.6607C40.159 17.1646 40.8762 17.1054 41.3121 17.536L45.1092 21.2867C45.223 21.3992 45.3082 21.5373 45.3576 21.6894L47.0852 27.0113C47.2774 27.6033 46.8879 28.2251 46.2714 28.3106L30.4985 30.4977L20.3419 42.7076C19.9562 43.1714 19.2508 43.1906 18.8404 42.7486L15.4844 39.1348C15.3938 39.0372 15.3236 38.9225 15.2779 38.7975L13.3882 33.6247C13.1655 33.0153 13.5732 32.3585 14.2182 32.2876L30.4985 30.4977L39.7995 17.6607Z" fill="#FFF9C1"/>
</g>
<g filter="url(#filter4_ddi)">
<circle cx="30.4993" cy="30.4983" r="0.367458" fill="#403A3A"/>
</g>
<defs>
<filter id="filter0_ddii" x="8.94531" y="9.94043" width="43.1151" height="43.119" filterUnits="userSpaceOnUse" color-interpolation-filters="sRGB">
<feFlood flood-opacity="0" result="BackgroundImageFix"/>
<feColorMatrix in="SourceAlpha" type="matrix" values="0 0 0 0 0 0 0 0 0 0 0 0 0 0 0 0 0 0 127 0"/>
<feOffset dy="1"/>
<feGaussianBlur stdDeviation="0.5"/>
<feColorMatrix type="matrix" values="0 0 0 0 0.175 0 0 0 0 0.030625 0 0 0 0 0.030625 0 0 0 0.4 0"/>
<feBlend mode="normal" in2="BackgroundImageFix" result="effect1_dropShadow"/>
<feColorMatrix in="SourceAlpha" type="matrix" values="0 0 0 0 0 0 0 0 0 0 0 0 0 0 0 0 0 0 127 0"/>
<feOffset dy="1"/>
<feGaussianBlur stdDeviation="0.5"/>
<feColorMatrix type="matrix" values="0 0 0 0 0.2 0 0 0 0 0.03 0 0 0 0 0.03 0 0 0 0.7 0"/>
<feBlend mode="normal" in2="effect1_dropShadow" result="effect2_dropShadow"/>
<feBlend mode="normal" in="SourceGraphic" in2="effect2_dropShadow" result="shape"/>
<feColorMatrix in="SourceAlpha" type="matrix" values="0 0 0 0 0 0 0 0 0 0 0 0 0 0 0 0 0 0 127 0" result="hardAlpha"/>
<feOffset dy="0.5"/>
<feGaussianBlur stdDeviation="0.25"/>
<feComposite in2="hardAlpha" operator="arithmetic" k2="-1" k3="1"/>
<feColorMatrix type="matrix" values="0 0 0 0 0.870833 0 0 0 0 0.584184 0 0 0 0 0.584184 0 0 0 1 0"/>
<feBlend mode="normal" in2="shape" result="effect3_innerShadow"/>
<feColorMatrix in="SourceAlpha" type="matrix" values="0 0 0 0 0 0 0 0 0 0 0 0 0 0 0 0 0 0 127 0" result="hardAlpha"/>
<feOffset dy="-0.5"/>
<feComposite in2="hardAlpha" operator="arithmetic" k2="-1" k3="1"/>
<feColorMatrix type="matrix" values="0 0 0 0 0.191667 0 0 0 0 0.0359375 0 0 0 0 0.0359375 0 0 0 0.45 0"/>
<feBlend mode="normal" in2="effect3_innerShadow" result="effect4_innerShadow"/>
</filter>
<filter id="filter1_ddii" x="11.127" y="12.126" width="38.7458" height="38.7458" filterUnits="userSpaceOnUse" color-interpolation-filters="sRGB">
<feFlood flood-opacity="0" result="BackgroundImageFix"/>
<feColorMatrix in="SourceAlpha" type="matrix" values="0 0 0 0 0 0 0 0 0 0 0 0 0 0 0 0 0 0 127 0"/>
<feOffset dy="1"/>
<feGaussianBlur stdDeviation="0.5"/>
<feColorMatrix type="matrix" values="0 0 0 0 0.175 0 0 0 0 0.030625 0 0 0 0 0.030625 0 0 0 0.4 0"/>
<feBlend mode="normal" in2="BackgroundImageFix" result="effect1_dropShadow"/>
<feColorMatrix in="SourceAlpha" type="matrix" values="0 0 0 0 0 0 0 0 0 0 0 0 0 0 0 0 0 0 127 0"/>
<feOffset dy="1"/>
<feGaussianBlur stdDeviation="0.5"/>
<feColorMatrix type="matrix" values="0 0 0 0 0.2 0 0 0 0 0.03 0 0 0 0 0.03 0 0 0 0.7 0"/>
<feBlend mode="normal" in2="effect1_dropShadow" result="effect2_dropShadow"/>
<feBlend mode="normal" in="SourceGraphic" in2="effect2_dropShadow" result="shape"/>
<feColorMatrix in="SourceAlpha" type="matrix" values="0 0 0 0 0 0 0 0 0 0 0 0 0 0 0 0 0 0 127 0" result="hardAlpha"/>
<feOffset dy="0.5"/>
<feGaussianBlur stdDeviation="0.25"/>
<feComposite in2="hardAlpha" operator="arithmetic" k2="-1" k3="1"/>
<feColorMatrix type="matrix" values="0 0 0 0 0.870833 0 0 0 0 0.584184 0 0 0 0 0.584184 0 0 0 1 0"/>
<feBlend mode="normal" in2="shape" result="effect3_innerShadow"/>
<feColorMatrix in="SourceAlpha" type="matrix" values="0 0 0 0 0 0 0 0 0 0 0 0 0 0 0 0 0 0 127 0" result="hardAlpha"/>
<feOffset dy="-0.5"/>
<feComposite in2="hardAlpha" operator="arithmetic" k2="-1" k3="1"/>
<feColorMatrix type="matrix" values="0 0 0 0 0.191667 0 0 0 0 0.0359375 0 0 0 0 0.0359375 0 0 0 0.45 0"/>
<feBlend mode="normal" in2="effect3_innerShadow" result="effect4_innerShadow"/>
</filter>
<filter id="filter2_ddi" x="30.1318" y="13.2639" width="0.734916" height="12.2539" filterUnits="userSpaceOnUse" color-interpolation-filters="sRGB">
<feFlood flood-opacity="0" result="BackgroundImageFix"/>
<feColorMatrix in="SourceAlpha" type="matrix" values="0 0 0 0 0 0 0 0 0 0 0 0 0 0 0 0 0 0 127 0"/>
<feOffset dy="0.7"/>
<feColorMatrix type="matrix" values="0 0 0 0 1 0 0 0 0 1 0 0 0 0 1 0 0 0 1 0"/>
<feBlend mode="normal" in2="BackgroundImageFix" result="effect1_dropShadow"/>
<feColorMatrix in="SourceAlpha" type="matrix" values="0 0 0 0 0 0 0 0 0 0 0 0 0 0 0 0 0 0 127 0"/>
<feOffset dy="-0.7"/>
<feColorMatrix type="matrix" values="0 0 0 0 0.595833 0 0 0 0 0.479149 0 0 0 0 0.479149 0 0 0 0.4 0"/>
<feBlend mode="normal" in2="effect1_dropShadow" result="effect2_dropShadow"/>
<feBlend mode="normal" in="SourceGraphic" in2="effect2_dropShadow" result="shape"/>
<feColorMatrix in="SourceAlpha" type="matrix" values="0 0 0 0 0 0 0 0 0 0 0 0 0 0 0 0 0 0 127 0" result="hardAlpha"/>
<feOffset dy="2"/>
<feGaussianBlur stdDeviation="1"/>
<feComposite in2="hardAlpha" operator="arithmetic" k2="-1" k3="1"/>
<feColorMatrix type="matrix" values="0 0 0 0 0.154167 0 0 0 0 0.132969 0 0 0 0 0.132969 0 0 0 0.73 0"/>
<feBlend mode="normal" in2="shape" result="effect3_innerShadow"/>
</filter>
<filter id="filter3_f" x="11.3271" y="15.2471" width="37.8077" height="29.8207" filterUnits="userSpaceOnUse" color-interpolation-filters="sRGB">
<feFlood flood-opacity="0" result="BackgroundImageFix"/>
<feBlend mode="normal" in="SourceGraphic" in2="BackgroundImageFix" result="shape"/>
<feGaussianBlur stdDeviation="1" result="effect1_foregroundBlur"/>
</filter>
<filter id="filter4_ddi" x="30.1318" y="29.4309" width="0.734916" height="3.43492" filterUnits="userSpaceOnUse" color-interpolation-filters="sRGB">
<feFlood flood-opacity="0" result="BackgroundImageFix"/>
<feColorMatrix in="SourceAlpha" type="matrix" values="0 0 0 0 0 0 0 0 0 0 0 0 0 0 0 0 0 0 127 0"/>
<feOffset dy="0.7"/>
<feColorMatrix type="matrix" values="0 0 0 0 1 0 0 0 0 1 0 0 0 0 1 0 0 0 1 0"/>
<feBlend mode="normal" in2="BackgroundImageFix" result="effect1_dropShadow"/>
<feColorMatrix in="SourceAlpha" type="matrix" values="0 0 0 0 0 0 0 0 0 0 0 0 0 0 0 0 0 0 127 0"/>
<feOffset dy="-0.7"/>
<feColorMatrix type="matrix" values="0 0 0 0 0.595833 0 0 0 0 0.479149 0 0 0 0 0.479149 0 0 0 0.4 0"/>
<feBlend mode="normal" in2="effect1_dropShadow" result="effect2_dropShadow"/>
<feBlend mode="normal" in="SourceGraphic" in2="effect2_dropShadow" result="shape"/>
<feColorMatrix in="SourceAlpha" type="matrix" values="0 0 0 0 0 0 0 0 0 0 0 0 0 0 0 0 0 0 127 0" result="hardAlpha"/>
<feOffset dy="2"/>
<feGaussianBlur stdDeviation="1"/>
<feComposite in2="hardAlpha" operator="arithmetic" k2="-1" k3="1"/>
<feColorMatrix type="matrix" values="0 0 0 0 0.154167 0 0 0 0 0.132969 0 0 0 0 0.132969 0 0 0 0.73 0"/>
<feBlend mode="normal" in2="shape" result="effect3_innerShadow"/>
</filter>
</defs>
</svg>
