<svg width="48" height="48" viewBox="0 0 48 48" fill="none" xmlns="http://www.w3.org/2000/svg">
<path d="M47.988 47.9999V47.9979H48V30.3939C48 21.7819 46.146 15.1479 36.078 15.1479C31.238 15.1479 27.99 17.8039 26.664 20.3219H26.524V15.9519H16.978V47.9979H26.918V32.1299C26.918 27.9519 27.71 23.9119 32.884 23.9119C37.982 23.9119 38.058 28.6799 38.058 32.3979V47.9999H47.988Z" fill="white"/>
<path d="M0.791992 15.9541H10.744V48.0001H0.791992V15.9541Z" fill="white"/>
<path d="M5.76399 0C2.582 0 0 2.582 0 5.76399C0 8.94599 2.582 11.582 5.76399 11.582C8.94599 11.582 11.528 8.94599 11.528 5.76399C11.526 2.582 8.94399 0 5.76399 0V0Z" fill="white"/>
</svg>
