<svg width="137" height="61" viewBox="0 0 137 61" fill="none" xmlns="http://www.w3.org/2000/svg">
<g filter="url(#filter0_ddii)">
<path d="M98.7263 39.072C97.7663 39.072 97.0343 38.808 96.5303 38.28C96.0503 37.752 95.7263 37.068 95.5583 36.228C95.4143 35.388 95.4023 34.44 95.5223 33.384C95.6663 32.328 95.8823 31.26 96.1703 30.18C95.9063 30.66 95.5463 31.296 95.0903 32.088C94.6583 32.856 94.2023 33.648 93.7223 34.464C93.2423 35.28 92.7743 36.048 92.3183 36.768C91.8863 37.464 91.5503 37.968 91.3103 38.28C91.0703 38.592 90.8063 38.808 90.5183 38.928C90.2543 39.024 90.0143 39.048 89.7983 39C89.5823 38.952 89.4263 38.832 89.3303 38.64C89.2343 38.448 89.2343 38.196 89.3303 37.884C89.4263 37.572 89.5703 37.092 89.7623 36.444C89.9543 35.796 90.1463 35.052 90.3383 34.212C90.5543 33.372 90.7343 32.472 90.8783 31.512C91.0223 30.528 91.1063 29.556 91.1303 28.596C90.2183 30.732 89.3303 32.484 88.4663 33.852C87.6023 35.196 86.7503 36.252 85.9103 37.02C85.0703 37.788 84.2543 38.316 83.4623 38.604C82.6703 38.892 81.9143 39.036 81.1943 39.036C80.4743 39.036 79.8023 38.928 79.1783 38.712C78.5543 38.472 78.0143 38.16 77.5583 37.776C77.1263 37.368 76.7903 36.9 76.5503 36.372C76.3343 35.82 76.2623 35.232 76.3343 34.608C76.4303 33.576 76.7063 32.796 77.1623 32.268C77.6423 31.716 78.1823 31.332 78.7823 31.116C79.3823 30.876 79.9703 30.78 80.5463 30.828C81.1223 30.852 81.5783 30.924 81.9143 31.044C82.2263 31.188 82.4423 31.38 82.5623 31.62C82.7063 31.86 82.7543 32.088 82.7063 32.304C82.6823 32.52 82.5743 32.688 82.3823 32.808C82.2143 32.928 81.9863 32.928 81.6983 32.808C81.2183 32.616 80.7863 32.592 80.4023 32.736C80.0183 32.856 79.7063 33.072 79.4663 33.384C79.2263 33.672 79.0703 34.02 78.9983 34.428C78.9263 34.836 78.9503 35.232 79.0703 35.616C79.2143 35.976 79.4663 36.288 79.8263 36.552C80.2103 36.792 80.7383 36.912 81.4103 36.912C82.3463 36.912 83.2103 36.54 84.0023 35.796C84.7943 35.052 85.5623 34.068 86.3063 32.844C87.0503 31.596 87.7703 30.192 88.4663 28.632C89.1623 27.072 89.8823 25.476 90.6263 23.844C91.3703 22.188 92.1383 20.568 92.9303 18.984C93.7223 17.4 94.5863 15.984 95.5223 14.736C95.7383 14.424 96.0023 14.232 96.3143 14.16C96.6503 14.064 96.9383 14.064 97.1783 14.16C97.4423 14.256 97.6103 14.436 97.6823 14.7C97.7783 14.94 97.7063 15.24 97.4663 15.6C97.2983 15.84 97.0823 16.26 96.8183 16.86C96.5783 17.46 96.3023 18.168 95.9903 18.984C95.7023 19.8 95.4143 20.7 95.1263 21.684C94.8383 22.644 94.5863 23.616 94.3703 24.6C94.1543 25.56 93.9863 26.496 93.8663 27.408C93.7463 28.296 93.7103 29.088 93.7583 29.784C94.4303 28.752 95.1383 27.696 95.8823 26.616C96.6263 25.512 97.3703 24.444 98.1143 23.412C98.8583 22.356 99.5783 21.348 100.274 20.388C100.97 19.404 101.606 18.54 102.182 17.796C102.758 17.028 103.25 16.392 103.658 15.888C104.09 15.36 104.402 15.012 104.594 14.844C104.882 14.604 105.194 14.46 105.53 14.412C105.866 14.34 106.154 14.352 106.394 14.448C106.634 14.544 106.778 14.724 106.826 14.988C106.874 15.228 106.754 15.54 106.466 15.924C105.194 17.724 104.066 19.5 103.082 21.252C102.098 22.98 101.246 24.624 100.526 26.184C99.8303 27.72 99.2663 29.148 98.8343 30.468C98.4263 31.764 98.1503 32.892 98.0063 33.852C97.8863 34.788 97.9103 35.532 98.0783 36.084C98.2703 36.612 98.6183 36.876 99.1223 36.876C99.2903 36.876 99.4943 36.84 99.7343 36.768C99.9983 36.672 100.274 36.552 100.562 36.408C100.85 36.264 101.126 36.096 101.39 35.904C101.678 35.712 101.93 35.508 102.146 35.292C102.578 34.86 102.902 34.524 103.118 34.284C103.358 34.02 103.646 33.684 103.982 33.276C104.126 33.06 104.318 32.952 104.558 32.952C104.822 32.928 105.05 32.976 105.242 33.096C105.458 33.192 105.614 33.336 105.71 33.528C105.806 33.72 105.77 33.924 105.602 34.14C105.386 34.428 105.074 34.824 104.666 35.328C104.258 35.808 103.73 36.36 103.082 36.984C102.674 37.368 102.302 37.692 101.966 37.956C101.63 38.22 101.294 38.436 100.958 38.604C100.622 38.772 100.274 38.892 99.9143 38.964C99.5543 39.036 99.1583 39.072 98.7263 39.072ZM115.41 33.276C115.578 33.06 115.782 32.952 116.022 32.952C116.286 32.928 116.526 32.976 116.742 33.096C116.958 33.192 117.114 33.336 117.21 33.528C117.306 33.72 117.27 33.924 117.102 34.14C116.982 34.284 116.814 34.5 116.598 34.788C116.406 35.052 116.166 35.34 115.878 35.652C115.614 35.964 115.326 36.288 115.014 36.624C114.702 36.96 114.378 37.272 114.042 37.56C113.394 38.136 112.818 38.532 112.314 38.748C111.81 38.964 111.366 39.06 110.982 39.036C110.598 39.012 110.274 38.892 110.01 38.676C109.746 38.46 109.518 38.208 109.326 37.92C108.942 38.16 108.522 38.412 108.066 38.676C107.634 38.94 106.974 39.072 106.086 39.072C105.462 39.072 104.922 38.928 104.466 38.64C104.01 38.352 103.674 37.944 103.458 37.416C103.242 36.888 103.17 36.264 103.242 35.544C103.314 34.8 103.59 33.996 104.07 33.132C104.526 32.268 105.066 31.524 105.69 30.9C106.338 30.252 106.986 29.724 107.634 29.316C108.282 28.908 108.906 28.608 109.506 28.416C110.13 28.224 110.67 28.128 111.126 28.128C111.438 28.128 111.702 28.176 111.918 28.272C112.158 28.344 112.374 28.44 112.566 28.56C112.758 28.68 112.938 28.824 113.106 28.992C113.25 28.704 113.49 28.5 113.826 28.38C114.162 28.236 114.474 28.188 114.762 28.236C115.074 28.26 115.302 28.368 115.446 28.56C115.614 28.752 115.602 29.016 115.41 29.352C115.218 29.736 114.978 30.216 114.69 30.792C114.402 31.344 114.102 31.92 113.79 32.52C113.478 33.096 113.178 33.648 112.89 34.176C112.626 34.68 112.41 35.052 112.242 35.292C112.098 35.556 112.038 35.748 112.062 35.868C112.11 35.964 112.218 36.012 112.386 36.012C112.554 35.988 112.746 35.916 112.962 35.796C113.178 35.676 113.394 35.508 113.61 35.292C114.018 34.86 114.342 34.524 114.582 34.284C114.846 34.02 115.122 33.684 115.41 33.276ZM110.118 34.284C110.478 33.828 110.766 33.372 110.982 32.916C111.222 32.436 111.39 32.004 111.486 31.62C111.606 31.212 111.654 30.864 111.63 30.576C111.606 30.264 111.498 30.036 111.306 29.892C111.114 29.748 110.862 29.712 110.55 29.784C110.262 29.832 109.938 29.964 109.578 30.18C109.242 30.396 108.882 30.684 108.498 31.044C108.138 31.404 107.778 31.812 107.418 32.268C107.058 32.748 106.758 33.216 106.518 33.672C106.278 34.128 106.098 34.56 105.978 34.968C105.882 35.352 105.846 35.7 105.87 36.012C105.918 36.3 106.038 36.516 106.23 36.66C106.398 36.804 106.626 36.852 106.914 36.804C107.226 36.756 107.562 36.624 107.922 36.408C108.282 36.192 108.642 35.904 109.002 35.544C109.386 35.184 109.758 34.764 110.118 34.284ZM115.424 33.276C115.904 32.724 116.42 32.04 116.972 31.224C117.524 30.384 118.028 29.616 118.484 28.92C118.196 28.56 117.968 28.128 117.8 27.624C117.656 27.096 117.572 26.568 117.548 26.04C117.548 25.512 117.62 25.02 117.764 24.564C117.908 24.084 118.16 23.7 118.52 23.412C119.048 23.004 119.552 22.8 120.032 22.8C120.512 22.776 120.92 22.896 121.256 23.16C121.592 23.424 121.832 23.796 121.976 24.276C122.144 24.732 122.18 25.224 122.084 25.752C122.036 26.064 121.916 26.424 121.724 26.832C121.532 27.24 121.304 27.684 121.04 28.164C121.328 28.236 121.652 28.236 122.012 28.164C122.396 28.092 122.72 28.116 122.984 28.236C123.248 28.332 123.452 28.476 123.596 28.668C123.74 28.86 123.812 29.076 123.812 29.316C123.812 29.532 123.74 29.712 123.596 29.856C123.5 29.952 123.308 30.168 123.02 30.504C122.732 30.84 122.396 31.248 122.012 31.728C121.652 32.184 121.28 32.676 120.896 33.204C120.512 33.732 120.176 34.236 119.888 34.716C119.624 35.196 119.42 35.628 119.276 36.012C119.156 36.372 119.18 36.612 119.348 36.732C119.612 36.972 119.984 36.996 120.464 36.804C120.944 36.612 121.448 36.324 121.976 35.94C122.504 35.532 123.02 35.088 123.524 34.608C124.028 34.104 124.436 33.66 124.748 33.276C124.916 33.084 125.12 32.988 125.36 32.988C125.624 32.964 125.852 33 126.044 33.096C126.26 33.192 126.416 33.336 126.512 33.528C126.608 33.72 126.572 33.924 126.404 34.14C126.044 34.644 125.528 35.244 124.856 35.94C124.208 36.612 123.476 37.224 122.66 37.776C121.868 38.304 121.052 38.688 120.212 38.928C119.372 39.168 118.592 39.096 117.872 38.712C117.248 38.4 116.9 37.908 116.828 37.236C116.756 36.564 116.876 35.844 117.188 35.076C117.5 34.284 117.944 33.492 118.52 32.7C119.096 31.908 119.72 31.236 120.392 30.684C120.584 30.516 120.68 30.408 120.68 30.36C120.704 30.288 120.464 30.156 119.96 29.964C119.36 30.9 118.772 31.764 118.196 32.556C117.644 33.348 117.272 33.876 117.08 34.14C116.888 34.38 116.66 34.512 116.396 34.536C116.156 34.536 115.94 34.476 115.748 34.356C115.556 34.236 115.424 34.08 115.352 33.888C115.256 33.672 115.28 33.468 115.424 33.276ZM120.032 24.6C119.84 24.6 119.684 24.684 119.564 24.852C119.468 24.996 119.396 25.2 119.348 25.464C119.324 25.704 119.336 25.968 119.384 26.256C119.432 26.544 119.528 26.82 119.672 27.084C119.816 26.796 119.948 26.508 120.068 26.22C120.188 25.932 120.272 25.668 120.32 25.428C120.368 25.188 120.368 24.996 120.32 24.852C120.272 24.684 120.176 24.6 120.032 24.6ZM125.028 32.592C125.484 31.8 126.012 31.104 126.612 30.504C127.236 29.88 127.872 29.376 128.52 28.992C129.192 28.608 129.864 28.368 130.536 28.272C131.232 28.176 131.868 28.236 132.444 28.452C132.972 28.668 133.26 28.992 133.308 29.424C133.38 29.856 133.32 30.324 133.128 30.828C132.936 31.308 132.66 31.776 132.3 32.232C131.94 32.664 131.616 33 131.328 33.24C131.064 33.456 130.788 33.552 130.5 33.528C130.236 33.504 130.008 33.42 129.816 33.276C129.624 33.108 129.492 32.916 129.42 32.7C129.348 32.484 129.396 32.304 129.564 32.16C129.732 31.992 129.936 31.788 130.176 31.548C130.416 31.308 130.62 31.08 130.788 30.864C130.956 30.624 131.052 30.432 131.076 30.288C131.1 30.12 130.992 30.036 130.752 30.036C130.512 30.036 130.236 30.132 129.924 30.324C129.612 30.492 129.288 30.744 128.952 31.08C128.616 31.392 128.28 31.764 127.944 32.196C127.608 32.628 127.296 33.096 127.008 33.6C126.648 34.248 126.492 34.824 126.54 35.328C126.612 35.832 126.828 36.228 127.188 36.516C127.548 36.78 128.028 36.9 128.628 36.876C129.228 36.828 129.9 36.576 130.644 36.12C130.932 35.952 131.232 35.748 131.544 35.508C131.856 35.268 132.156 35.016 132.444 34.752C132.732 34.488 132.996 34.236 133.236 33.996C133.476 33.732 133.68 33.492 133.848 33.276C133.992 33.06 134.184 32.952 134.424 32.952C134.664 32.928 134.88 32.964 135.072 33.06C135.288 33.156 135.444 33.312 135.54 33.528C135.636 33.72 135.612 33.924 135.468 34.14C135.324 34.356 135.132 34.608 134.892 34.896C134.652 35.16 134.376 35.448 134.064 35.76C133.752 36.072 133.416 36.384 133.056 36.696C132.72 37.008 132.372 37.296 132.012 37.56C131.316 38.112 130.596 38.496 129.852 38.712C129.132 38.928 128.448 39.024 127.8 39C127.152 39 126.576 38.904 126.072 38.712C125.568 38.496 125.196 38.232 124.956 37.92C124.668 37.56 124.476 37.152 124.38 36.696C124.26 36.216 124.224 35.736 124.272 35.256C124.296 34.776 124.38 34.308 124.524 33.852C124.644 33.396 124.812 32.976 125.028 32.592Z" fill="#FFF5F5"/>
</g>
<g style="mix-blend-mode:luminosity">
<path d="M48.6087 30.4989C50.5168 30.4989 52.0918 32.0554 51.7874 33.9391C51.7225 34.3407 51.6463 34.7404 51.5588 35.1377C51.1483 37.0011 49.111 37.8684 47.3369 37.166C43.7937 35.7632 44.7979 30.4989 48.6087 30.4989Z" fill="#232320"/>
<path d="M47.9944 35.1865C49.8375 35.6804 50.956 37.5915 50.1745 39.3321C50.0078 39.7033 49.8307 40.0696 49.6434 40.4307C48.7647 42.1244 46.5722 42.4349 45.0404 41.2973C41.981 39.0252 44.3135 34.2002 47.9944 35.1865Z" fill="#232320"/>
<path d="M46.1834 39.5545C47.8359 40.5085 48.4216 42.644 47.2162 44.1231C46.9592 44.4385 46.6933 44.7465 46.4189 45.0468C45.1318 46.4553 42.9336 46.1878 41.7485 44.6925C39.3814 41.706 42.8832 37.6491 46.1834 39.5545Z" fill="#232320"/>
<path d="M43.3053 43.3051C44.6545 44.6543 44.6676 46.8686 43.1205 47.9853C42.7906 48.2234 42.454 48.4521 42.1112 48.6712C40.5034 49.6986 38.4494 48.8713 37.6916 47.1201C36.1782 43.6227 40.6107 40.6104 43.3053 43.3051Z" fill="#232320"/>
<path d="M39.5552 46.1836C40.5092 47.836 39.9487 49.9783 38.1653 50.6565C37.785 50.8011 37.4008 50.9349 37.0129 51.0578C35.194 51.634 33.4241 50.3033 33.1454 48.4157C32.5887 44.6458 37.6498 42.8833 39.5552 46.1836Z" fill="#232320"/>
<path d="M35.1868 47.9929C35.6806 49.836 34.5848 51.7602 32.6866 51.9537C32.2819 51.995 31.8761 52.0248 31.4697 52.0431C29.5635 52.1289 28.1984 50.3854 28.4177 48.49C28.8557 44.7045 34.2005 44.312 35.1868 47.9929Z" fill="#232320"/>
<path d="M30.5001 48.6099C30.5001 50.518 28.9436 52.093 27.06 51.7886C26.6584 51.7237 26.2587 51.6475 25.8614 51.56C23.998 51.1496 23.1306 49.1122 23.833 47.3381C25.2358 43.7949 30.5001 44.7991 30.5001 48.6099Z" fill="#232320"/>
<path d="M25.8108 47.9932C25.3169 49.8363 23.4058 50.9548 21.6652 50.1732C21.294 50.0066 20.9277 49.8295 20.5666 49.6422C18.8729 48.7634 18.5624 46.571 19.7 45.0392C21.9721 41.9798 26.7971 44.3123 25.8108 47.9932Z" fill="#232320"/>
<path d="M21.4439 46.1842C20.4899 47.8366 18.3544 48.4224 16.8753 47.2169C16.56 46.9599 16.2519 46.6941 15.9516 46.4196C14.5431 45.1325 14.8106 42.9344 16.3059 41.7492C19.2924 39.3821 23.3493 42.8839 21.4439 46.1842Z" fill="#232320"/>
<path d="M17.6948 43.3054C16.3456 44.6546 14.1313 44.6677 13.0146 43.1206C12.7765 42.7907 12.5478 42.4542 12.3287 42.1114C11.3013 40.5035 12.1286 38.4495 13.8798 37.6918C17.3771 36.1783 20.3894 40.6108 17.6948 43.3054Z" fill="#232320"/>
<path d="M14.8148 39.5544C13.1624 40.5085 11.0201 39.948 10.3419 38.1645C10.1973 37.7843 10.0635 37.4 9.94063 37.0122C9.36436 35.1932 10.6951 33.4234 12.5827 33.1446C16.3526 32.5879 18.1151 37.649 14.8148 39.5544Z" fill="#232320"/>
<path d="M13.0044 35.1867C11.1613 35.6805 9.23714 34.5847 9.04362 32.6865C9.00236 32.2818 8.97256 31.8759 8.95426 31.4695C8.8684 29.5634 10.6119 28.1983 12.5073 28.4176C16.2928 28.8556 16.6853 34.2004 13.0044 35.1867Z" fill="#232320"/>
<path d="M12.3891 30.4986C10.481 30.4986 8.90603 28.9421 9.2104 27.0585C9.2753 26.6569 9.35154 26.2572 9.43905 25.8599C9.84947 23.9965 11.8869 23.1291 13.6609 23.8315C17.2041 25.2344 16.1999 30.4986 12.3891 30.4986Z" fill="#232320"/>
<path d="M13.0055 25.812C11.1624 25.3182 10.0439 23.4071 10.8254 21.6664C10.9921 21.2953 11.1691 20.9289 11.3565 20.5678C12.2352 18.8741 14.4277 18.5636 15.9595 19.7013C19.0189 21.9733 16.6864 26.7983 13.0055 25.812Z" fill="#232320"/>
<path d="M14.8151 21.444C13.1627 20.49 12.5769 18.3545 13.7823 16.8754C14.0393 16.5601 14.3052 16.2521 14.5796 15.9517C15.8668 14.5432 18.0649 14.8107 19.2501 16.3061C21.6171 19.2926 18.1154 23.3494 14.8151 21.444Z" fill="#232320"/>
<path d="M17.6925 17.6925C16.3433 16.3433 16.3302 14.129 17.8773 13.0123C18.2072 12.7742 18.5438 12.5455 18.8866 12.3264C20.4944 11.299 22.5484 12.1263 23.3062 13.8774C24.8196 17.3748 20.3872 20.3871 17.6925 17.6925Z" fill="#232320"/>
<path d="M21.4434 14.8149C20.4893 13.1625 21.0498 11.0203 22.8333 10.342C23.2135 10.1974 23.5978 10.0636 23.9856 9.94076C25.8046 9.36449 27.5744 10.6952 27.8532 12.5828C28.4099 16.3527 23.3488 18.1152 21.4434 14.8149Z" fill="#232320"/>
<path d="M25.8131 13.0056C25.3193 11.1626 26.4151 9.23837 28.3133 9.04484C28.718 9.00359 29.1238 8.97378 29.5302 8.95548C31.4364 8.86963 32.8015 10.6131 32.5822 12.5085C32.1442 16.2941 26.7994 16.6866 25.8131 13.0056Z" fill="#232320"/>
<path d="M30.4977 12.3876C30.4977 10.4796 32.0542 8.90457 33.9378 9.20894C34.3394 9.27383 34.7391 9.35008 35.1364 9.43758C36.9998 9.848 37.8672 11.8854 37.1648 13.6595C35.762 17.2027 30.4977 16.1984 30.4977 12.3876Z" fill="#232320"/>
<path d="M35.1856 13.0053C35.6794 11.1623 37.5905 10.0438 39.3312 10.8253C39.7023 10.9919 40.0686 11.169 40.4297 11.3564C42.1234 12.2351 42.4339 14.4276 41.2963 15.9594C39.0242 19.0188 34.1992 16.6863 35.1856 13.0053Z" fill="#232320"/>
<path d="M39.5546 14.8144C40.5087 13.1619 42.6441 12.5762 44.1232 13.7816C44.4386 14.0386 44.7466 14.3045 45.0469 14.5789C46.4555 15.866 46.1879 18.0642 44.6926 19.2493C41.7061 21.6164 37.6492 18.1146 39.5546 14.8144Z" fill="#232320"/>
<path d="M43.3051 17.6926C44.6543 16.3434 46.8686 16.3303 47.9853 17.8775C48.2234 18.2073 48.4521 18.5439 48.6712 18.8867C49.6986 20.4945 48.8713 22.5485 47.1201 23.3063C43.6227 24.8197 40.6104 20.3873 43.3051 17.6926Z" fill="#232320"/>
<path d="M46.1837 21.4441C47.8361 20.4901 49.9784 21.0505 50.6566 22.834C50.8012 23.2142 50.935 23.5985 51.0579 23.9863C51.6342 25.8053 50.3034 27.5752 48.4158 27.8539C44.6459 28.4106 42.8835 23.3495 46.1837 21.4441Z" fill="#232320"/>
<path d="M47.992 25.8119C49.835 25.318 51.7592 26.4138 51.9527 28.3121C51.994 28.7168 52.0238 29.1226 52.0421 29.529C52.1279 31.4351 50.3845 32.8003 48.489 32.581C44.7035 32.143 44.311 26.7982 47.992 25.8119Z" fill="#232320"/>
<g filter="url(#filter1_ddii)">
<path d="M47.7839 30.501C49.6045 30.501 51.1074 31.9861 50.817 33.7835C50.755 34.1667 50.6823 34.548 50.5988 34.9271C50.2072 36.7052 48.2631 37.5328 46.5704 36.8626C43.1895 35.524 44.1477 30.501 47.7839 30.501Z" fill="#292929"/>
<path d="M47.1958 34.9724C48.9544 35.4436 50.0217 37.2671 49.276 38.928C49.117 39.2822 48.948 39.6317 48.7692 39.9763C47.9308 41.5924 45.8388 41.8886 44.3772 40.8031C41.458 38.6352 43.6836 34.0313 47.1958 34.9724Z" fill="#292929"/>
<path d="M45.468 39.1412C47.0447 40.0516 47.6037 42.0892 46.4535 43.5005C46.2083 43.8014 45.9546 44.0953 45.6927 44.3818C44.4646 45.7259 42.3671 45.4706 41.2363 44.0438C38.9777 41.1941 42.319 37.3231 45.468 39.1412Z" fill="#292929"/>
<path d="M42.7232 42.7192C44.0106 44.0066 44.0231 46.1194 42.5469 47.185C42.2321 47.4121 41.911 47.6304 41.5839 47.8394C40.0497 48.8197 38.0899 48.0303 37.3668 46.3594C35.9227 43.0223 40.1521 40.148 42.7232 42.7192Z" fill="#292929"/>
<path d="M39.1443 45.4666C40.0546 47.0433 39.5198 49.0874 37.8181 49.7345C37.4552 49.8725 37.0886 50.0002 36.7185 50.1174C34.9829 50.6673 33.2941 49.3975 33.0282 47.5964C32.497 43.9992 37.3262 42.3175 39.1443 45.4666Z" fill="#292929"/>
<path d="M34.9763 47.192C35.4475 48.9506 34.4019 50.7866 32.5907 50.9713C32.2045 51.0106 31.8173 51.0391 31.4295 51.0565C29.6107 51.1384 28.3081 49.4749 28.5174 47.6663C28.9353 44.0542 34.0352 43.6797 34.9763 47.192Z" fill="#292929"/>
<path d="M30.5044 47.7821C30.5044 49.6027 29.0192 51.1055 27.2219 50.8151C26.8387 50.7532 26.4573 50.6805 26.0782 50.597C24.3002 50.2054 23.4726 48.2613 24.1428 46.5685C25.4814 43.1877 30.5044 44.1459 30.5044 47.7821Z" fill="#292929"/>
<path d="M26.0315 47.193C25.5603 48.9516 23.7368 50.0189 22.0759 49.2732C21.7217 49.1142 21.3722 48.9452 21.0276 48.7664C19.4115 47.928 19.1153 45.836 20.2008 44.3743C22.3688 41.4552 26.9726 43.6808 26.0315 47.193Z" fill="#292929"/>
<path d="M21.8625 45.4656C20.9522 47.0423 18.9146 47.6012 17.5033 46.451C17.2024 46.2058 16.9085 45.9521 16.6219 45.6903C15.2779 44.4621 15.5332 42.3647 16.96 41.2338C19.8097 38.9752 23.6806 42.3165 21.8625 45.4656Z" fill="#292929"/>
<path d="M18.2819 42.7191C16.9945 44.0065 14.8817 44.019 13.8161 42.5427C13.589 42.228 13.3707 41.9068 13.1617 41.5797C12.1814 40.0456 12.9708 38.0857 14.6417 37.3627C17.9788 35.9186 20.8531 40.1479 18.2819 42.7191Z" fill="#292929"/>
<path d="M15.5372 39.1403C13.9605 40.0507 11.9164 39.5159 11.2693 37.8142C11.1313 37.4513 11.0036 37.0847 10.8864 36.7146C10.3365 34.979 11.6063 33.2902 13.4074 33.0243C17.0046 32.4931 18.6863 37.3223 15.5372 39.1403Z" fill="#292929"/>
<path d="M13.8119 34.9729C12.0533 35.4441 10.2173 34.3985 10.0327 32.5872C9.99328 32.2011 9.96485 31.8139 9.94738 31.4261C9.86546 29.6073 11.529 28.3047 13.3376 28.514C16.9497 28.9319 17.3242 34.0318 13.8119 34.9729Z" fill="#292929"/>
<path d="M13.2233 30.5005C11.4027 30.5005 9.89983 29.0153 10.1902 27.218C10.2522 26.8348 10.3249 26.4534 10.4084 26.0743C10.8 24.2963 12.7441 23.4687 14.4368 24.1389C17.8177 25.4775 16.8595 30.5005 13.2233 30.5005Z" fill="#292929"/>
<path d="M13.8114 26.0276C12.0528 25.5564 10.9855 23.7329 11.7312 22.072C11.8902 21.7178 12.0592 21.3683 12.238 21.0237C13.0764 19.4076 15.1684 19.1114 16.6301 20.1969C19.5492 22.3648 17.3236 26.9687 13.8114 26.0276Z" fill="#292929"/>
<path d="M15.5378 21.8597C13.9611 20.9494 13.4022 18.9118 14.5524 17.5005C14.7976 17.1996 15.0513 16.9057 15.3132 16.6191C16.5413 15.2751 18.6387 15.5304 19.7696 16.9572C22.0282 19.8069 18.6869 23.6778 15.5378 21.8597Z" fill="#292929"/>
<path d="M18.2841 18.2808C16.9967 16.9934 16.9842 14.8806 18.4605 13.815C18.7752 13.5879 19.0963 13.3696 19.4234 13.1606C20.9576 12.1803 22.9174 12.9697 23.6405 14.6406C25.0846 17.9777 20.8553 20.852 18.2841 18.2808Z" fill="#292929"/>
<path d="M21.8616 15.5344C20.9513 13.9577 21.4861 11.9136 23.1878 11.2665C23.5506 11.1285 23.9173 11.0008 24.2873 10.8836C26.0229 10.3337 27.7117 11.6035 27.9777 13.4046C28.5089 17.0018 23.6797 18.6834 21.8616 15.5344Z" fill="#292929"/>
<path d="M26.0309 13.808C25.5597 12.0494 26.6053 10.2134 28.4165 10.0288C28.8027 9.98938 29.1899 9.96095 29.5777 9.94348C31.3965 9.86156 32.6991 11.5251 32.4898 13.3337C32.0719 16.9458 26.972 17.3203 26.0309 13.808Z" fill="#292929"/>
<path d="M30.5028 13.2194C30.5028 11.3988 31.988 9.89592 33.7853 10.1863C34.1685 10.2483 34.5499 10.321 34.929 10.4045C36.707 10.7961 37.5346 12.7401 36.8644 14.4329C35.5258 17.8138 30.5028 16.8556 30.5028 13.2194Z" fill="#292929"/>
<path d="M34.9736 13.8079C35.4448 12.0493 37.2684 10.9821 38.9293 11.7278C39.2834 11.8868 39.6329 12.0558 39.9775 12.2345C41.5936 13.073 41.8899 15.165 40.8044 16.6266C38.6364 19.5458 34.0325 17.3202 34.9736 13.8079Z" fill="#292929"/>
<path d="M39.1418 15.5339C40.0522 13.9572 42.0898 13.3983 43.5011 14.5485C43.802 14.7937 44.0959 15.0474 44.3825 15.3092C45.7265 16.5374 45.4712 18.6348 44.0444 19.7657C41.1947 22.0243 37.3238 18.683 39.1418 15.5339Z" fill="#292929"/>
<path d="M42.7219 18.2799C44.0093 16.9926 46.1221 16.9801 47.1876 18.4563C47.4148 18.7711 47.633 19.0922 47.8421 19.4193C48.8224 20.9534 48.033 22.9133 46.3621 23.6364C43.025 25.0805 40.1507 20.8511 42.7219 18.2799Z" fill="#292929"/>
<path d="M45.4672 21.8592C47.0439 20.9488 49.088 21.4836 49.7351 23.1854C49.8731 23.5482 50.0008 23.9148 50.118 24.2849C50.6679 26.0205 49.3981 27.7093 47.597 27.9752C43.9998 28.5064 42.3181 23.6773 45.4672 21.8592Z" fill="#292929"/>
<path d="M47.1932 26.0281C48.9518 25.5569 50.7878 26.6025 50.9725 28.4137C51.0118 28.7999 51.0403 29.1871 51.0577 29.5749C51.1397 31.3937 49.4761 32.6963 47.6675 32.487C44.0554 32.0691 43.6809 26.9692 47.1932 26.0281Z" fill="#292929"/>
</g>
<g filter="url(#filter2_ddii)">
<circle cx="30.5002" cy="30.4984" r="18.3729" fill="#EADB59"/>
</g>
<g filter="url(#filter3_ddi)">
<rect x="30.1316" y="13.9634" width="0.734916" height="9.5539" rx="0.367458" fill="#403A3A"/>
</g>
<g filter="url(#filter4_f)">
<path d="M39.7993 17.6612C40.1588 17.1651 40.8759 17.1059 41.3118 17.5365L45.109 21.2872C45.2228 21.3997 45.308 21.5377 45.3573 21.6899L47.085 27.0118C47.2771 27.6038 46.8877 28.2256 46.2712 28.3111L30.4982 30.4982L20.3417 42.7081C19.956 43.1718 19.2506 43.1911 18.8401 42.7491L15.4842 39.1353C15.3936 39.0377 15.3234 38.923 15.2777 38.798L13.3879 33.6252C13.1653 33.0158 13.573 32.359 14.2179 32.2881L30.4982 30.4982L39.7993 17.6612Z" fill="#FFF9C1"/>
</g>
<g filter="url(#filter5_ddi)">
<circle cx="30.4991" cy="30.4978" r="0.367458" fill="#403A3A"/>
</g>
</g>
<defs>
<filter id="filter0_ddii" x="75.3073" y="14.0879" width="61.2905" height="26.984" filterUnits="userSpaceOnUse" color-interpolation-filters="sRGB">
<feFlood flood-opacity="0" result="BackgroundImageFix"/>
<feColorMatrix in="SourceAlpha" type="matrix" values="0 0 0 0 0 0 0 0 0 0 0 0 0 0 0 0 0 0 127 0"/>
<feOffset dy="1"/>
<feGaussianBlur stdDeviation="0.5"/>
<feColorMatrix type="matrix" values="0 0 0 0 0.175 0 0 0 0 0.030625 0 0 0 0 0.030625 0 0 0 0.4 0"/>
<feBlend mode="normal" in2="BackgroundImageFix" result="effect1_dropShadow"/>
<feColorMatrix in="SourceAlpha" type="matrix" values="0 0 0 0 0 0 0 0 0 0 0 0 0 0 0 0 0 0 127 0"/>
<feOffset dy="1"/>
<feGaussianBlur stdDeviation="0.5"/>
<feColorMatrix type="matrix" values="0 0 0 0 0.2 0 0 0 0 0.03 0 0 0 0 0.03 0 0 0 0.7 0"/>
<feBlend mode="normal" in2="effect1_dropShadow" result="effect2_dropShadow"/>
<feBlend mode="normal" in="SourceGraphic" in2="effect2_dropShadow" result="shape"/>
<feColorMatrix in="SourceAlpha" type="matrix" values="0 0 0 0 0 0 0 0 0 0 0 0 0 0 0 0 0 0 127 0" result="hardAlpha"/>
<feOffset dy="0.5"/>
<feGaussianBlur stdDeviation="0.25"/>
<feComposite in2="hardAlpha" operator="arithmetic" k2="-1" k3="1"/>
<feColorMatrix type="matrix" values="0 0 0 0 0.9375 0 0 0 0 0.9375 0 0 0 0 0.9375 0 0 0 1 0"/>
<feBlend mode="normal" in2="shape" result="effect3_innerShadow"/>
<feColorMatrix in="SourceAlpha" type="matrix" values="0 0 0 0 0 0 0 0 0 0 0 0 0 0 0 0 0 0 127 0" result="hardAlpha"/>
<feOffset dy="-0.5"/>
<feComposite in2="hardAlpha" operator="arithmetic" k2="-1" k3="1"/>
<feColorMatrix type="matrix" values="0 0 0 0 0.191667 0 0 0 0 0.0359375 0 0 0 0 0.0359375 0 0 0 0.45 0"/>
<feBlend mode="normal" in2="effect3_innerShadow" result="effect4_innerShadow"/>
</filter>
<filter id="filter1_ddii" x="8.94446" y="9.94043" width="43.1162" height="43.119" filterUnits="userSpaceOnUse" color-interpolation-filters="sRGB">
<feFlood flood-opacity="0" result="BackgroundImageFix"/>
<feColorMatrix in="SourceAlpha" type="matrix" values="0 0 0 0 0 0 0 0 0 0 0 0 0 0 0 0 0 0 127 0"/>
<feOffset dy="1"/>
<feGaussianBlur stdDeviation="0.5"/>
<feColorMatrix type="matrix" values="0 0 0 0 0.175 0 0 0 0 0.030625 0 0 0 0 0.030625 0 0 0 0.4 0"/>
<feBlend mode="normal" in2="BackgroundImageFix" result="effect1_dropShadow"/>
<feColorMatrix in="SourceAlpha" type="matrix" values="0 0 0 0 0 0 0 0 0 0 0 0 0 0 0 0 0 0 127 0"/>
<feOffset dy="1"/>
<feGaussianBlur stdDeviation="0.5"/>
<feColorMatrix type="matrix" values="0 0 0 0 0.2 0 0 0 0 0.03 0 0 0 0 0.03 0 0 0 0.7 0"/>
<feBlend mode="normal" in2="effect1_dropShadow" result="effect2_dropShadow"/>
<feBlend mode="normal" in="SourceGraphic" in2="effect2_dropShadow" result="shape"/>
<feColorMatrix in="SourceAlpha" type="matrix" values="0 0 0 0 0 0 0 0 0 0 0 0 0 0 0 0 0 0 127 0" result="hardAlpha"/>
<feOffset dy="0.5"/>
<feGaussianBlur stdDeviation="0.25"/>
<feComposite in2="hardAlpha" operator="arithmetic" k2="-1" k3="1"/>
<feColorMatrix type="matrix" values="0 0 0 0 0.9375 0 0 0 0 0.9375 0 0 0 0 0.9375 0 0 0 1 0"/>
<feBlend mode="normal" in2="shape" result="effect3_innerShadow"/>
<feColorMatrix in="SourceAlpha" type="matrix" values="0 0 0 0 0 0 0 0 0 0 0 0 0 0 0 0 0 0 127 0" result="hardAlpha"/>
<feOffset dy="-0.5"/>
<feComposite in2="hardAlpha" operator="arithmetic" k2="-1" k3="1"/>
<feColorMatrix type="matrix" values="0 0 0 0 0.191667 0 0 0 0 0.0359375 0 0 0 0 0.0359375 0 0 0 0.45 0"/>
<feBlend mode="normal" in2="effect3_innerShadow" result="effect4_innerShadow"/>
</filter>
<filter id="filter2_ddii" x="11.1273" y="12.1255" width="38.7458" height="38.7458" filterUnits="userSpaceOnUse" color-interpolation-filters="sRGB">
<feFlood flood-opacity="0" result="BackgroundImageFix"/>
<feColorMatrix in="SourceAlpha" type="matrix" values="0 0 0 0 0 0 0 0 0 0 0 0 0 0 0 0 0 0 127 0"/>
<feOffset dy="1"/>
<feGaussianBlur stdDeviation="0.5"/>
<feColorMatrix type="matrix" values="0 0 0 0 0.175 0 0 0 0 0.030625 0 0 0 0 0.030625 0 0 0 0.4 0"/>
<feBlend mode="normal" in2="BackgroundImageFix" result="effect1_dropShadow"/>
<feColorMatrix in="SourceAlpha" type="matrix" values="0 0 0 0 0 0 0 0 0 0 0 0 0 0 0 0 0 0 127 0"/>
<feOffset dy="1"/>
<feGaussianBlur stdDeviation="0.5"/>
<feColorMatrix type="matrix" values="0 0 0 0 0.2 0 0 0 0 0.03 0 0 0 0 0.03 0 0 0 0.7 0"/>
<feBlend mode="normal" in2="effect1_dropShadow" result="effect2_dropShadow"/>
<feBlend mode="normal" in="SourceGraphic" in2="effect2_dropShadow" result="shape"/>
<feColorMatrix in="SourceAlpha" type="matrix" values="0 0 0 0 0 0 0 0 0 0 0 0 0 0 0 0 0 0 127 0" result="hardAlpha"/>
<feOffset dy="0.5"/>
<feGaussianBlur stdDeviation="0.25"/>
<feComposite in2="hardAlpha" operator="arithmetic" k2="-1" k3="1"/>
<feColorMatrix type="matrix" values="0 0 0 0 0.9375 0 0 0 0 0.9375 0 0 0 0 0.9375 0 0 0 1 0"/>
<feBlend mode="normal" in2="shape" result="effect3_innerShadow"/>
<feColorMatrix in="SourceAlpha" type="matrix" values="0 0 0 0 0 0 0 0 0 0 0 0 0 0 0 0 0 0 127 0" result="hardAlpha"/>
<feOffset dy="-0.5"/>
<feComposite in2="hardAlpha" operator="arithmetic" k2="-1" k3="1"/>
<feColorMatrix type="matrix" values="0 0 0 0 0.191667 0 0 0 0 0.0359375 0 0 0 0 0.0359375 0 0 0 0.45 0"/>
<feBlend mode="normal" in2="effect3_innerShadow" result="effect4_innerShadow"/>
</filter>
<filter id="filter3_ddi" x="30.1316" y="13.2634" width="0.734916" height="12.2539" filterUnits="userSpaceOnUse" color-interpolation-filters="sRGB">
<feFlood flood-opacity="0" result="BackgroundImageFix"/>
<feColorMatrix in="SourceAlpha" type="matrix" values="0 0 0 0 0 0 0 0 0 0 0 0 0 0 0 0 0 0 127 0"/>
<feOffset dy="0.7"/>
<feColorMatrix type="matrix" values="0 0 0 0 1 0 0 0 0 1 0 0 0 0 1 0 0 0 1 0"/>
<feBlend mode="normal" in2="BackgroundImageFix" result="effect1_dropShadow"/>
<feColorMatrix in="SourceAlpha" type="matrix" values="0 0 0 0 0 0 0 0 0 0 0 0 0 0 0 0 0 0 127 0"/>
<feOffset dy="-0.7"/>
<feColorMatrix type="matrix" values="0 0 0 0 0.595833 0 0 0 0 0.479149 0 0 0 0 0.479149 0 0 0 0.4 0"/>
<feBlend mode="normal" in2="effect1_dropShadow" result="effect2_dropShadow"/>
<feBlend mode="normal" in="SourceGraphic" in2="effect2_dropShadow" result="shape"/>
<feColorMatrix in="SourceAlpha" type="matrix" values="0 0 0 0 0 0 0 0 0 0 0 0 0 0 0 0 0 0 127 0" result="hardAlpha"/>
<feOffset dy="2"/>
<feGaussianBlur stdDeviation="1"/>
<feComposite in2="hardAlpha" operator="arithmetic" k2="-1" k3="1"/>
<feColorMatrix type="matrix" values="0 0 0 0 0.154167 0 0 0 0 0.132969 0 0 0 0 0.132969 0 0 0 0.73 0"/>
<feBlend mode="normal" in2="shape" result="effect3_innerShadow"/>
</filter>
<filter id="filter4_f" x="11.3265" y="15.248" width="37.8077" height="29.8207" filterUnits="userSpaceOnUse" color-interpolation-filters="sRGB">
<feFlood flood-opacity="0" result="BackgroundImageFix"/>
<feBlend mode="normal" in="SourceGraphic" in2="BackgroundImageFix" result="shape"/>
<feGaussianBlur stdDeviation="1" result="effect1_foregroundBlur"/>
</filter>
<filter id="filter5_ddi" x="30.1316" y="29.4304" width="0.734916" height="3.43492" filterUnits="userSpaceOnUse" color-interpolation-filters="sRGB">
<feFlood flood-opacity="0" result="BackgroundImageFix"/>
<feColorMatrix in="SourceAlpha" type="matrix" values="0 0 0 0 0 0 0 0 0 0 0 0 0 0 0 0 0 0 127 0"/>
<feOffset dy="0.7"/>
<feColorMatrix type="matrix" values="0 0 0 0 1 0 0 0 0 1 0 0 0 0 1 0 0 0 1 0"/>
<feBlend mode="normal" in2="BackgroundImageFix" result="effect1_dropShadow"/>
<feColorMatrix in="SourceAlpha" type="matrix" values="0 0 0 0 0 0 0 0 0 0 0 0 0 0 0 0 0 0 127 0"/>
<feOffset dy="-0.7"/>
<feColorMatrix type="matrix" values="0 0 0 0 0.595833 0 0 0 0 0.479149 0 0 0 0 0.479149 0 0 0 0.4 0"/>
<feBlend mode="normal" in2="effect1_dropShadow" result="effect2_dropShadow"/>
<feBlend mode="normal" in="SourceGraphic" in2="effect2_dropShadow" result="shape"/>
<feColorMatrix in="SourceAlpha" type="matrix" values="0 0 0 0 0 0 0 0 0 0 0 0 0 0 0 0 0 0 127 0" result="hardAlpha"/>
<feOffset dy="2"/>
<feGaussianBlur stdDeviation="1"/>
<feComposite in2="hardAlpha" operator="arithmetic" k2="-1" k3="1"/>
<feColorMatrix type="matrix" values="0 0 0 0 0.154167 0 0 0 0 0.132969 0 0 0 0 0.132969 0 0 0 0.73 0"/>
<feBlend mode="normal" in2="shape" result="effect3_innerShadow"/>
</filter>
</defs>
</svg>
