<svg width="58" height="44" viewBox="0 0 58 44" fill="none" xmlns="http://www.w3.org/2000/svg">
<path d="M4.99999 37.7499V9.42821L27.5258 28.9506L27.5261 28.9509C27.9499 29.3174 28.4755 29.5 29 29.5C29.5244 29.5 30.05 29.3176 30.4739 28.9508L30.4742 28.9506L53 9.42821V37.7499C53 37.7499 53 37.75 53 37.75C52.9999 38.4394 52.4394 38.9999 51.75 38.9999H6.25004C5.56059 38.9999 4.99999 38.4394 4.99999 37.7499ZM51.75 0.5H6.25004C3.07885 0.5 0.5 3.07884 0.5 6.25003V37.75C0.5 40.9212 3.07885 43.5 6.25004 43.5H51.75C54.9212 43.5 57.5 40.9212 57.5 37.75V6.25003C57.5 3.07884 54.9212 0.5 51.75 0.5ZM51.2367 4.99998L29 24.2727L6.76317 4.99998H51.2367Z" fill="white" stroke="white"/>
</svg>
