<svg width="62" height="28" viewBox="0 0 62 28" fill="none" xmlns="http://www.w3.org/2000/svg">
<g filter="url(#filter0_ddii)">
<path d="M23.7263 25.072C22.7663 25.072 22.0343 24.808 21.5303 24.28C21.0503 23.752 20.7263 23.068 20.5583 22.228C20.4143 21.388 20.4023 20.44 20.5223 19.384C20.6663 18.328 20.8823 17.26 21.1703 16.18C20.9063 16.66 20.5463 17.296 20.0903 18.088C19.6583 18.856 19.2023 19.648 18.7223 20.464C18.2423 21.28 17.7743 22.048 17.3183 22.768C16.8863 23.464 16.5503 23.968 16.3103 24.28C16.0703 24.592 15.8063 24.808 15.5183 24.928C15.2543 25.024 15.0143 25.048 14.7983 25C14.5823 24.952 14.4263 24.832 14.3303 24.64C14.2343 24.448 14.2343 24.196 14.3303 23.884C14.4263 23.572 14.5703 23.092 14.7623 22.444C14.9543 21.796 15.1463 21.052 15.3383 20.212C15.5543 19.372 15.7343 18.472 15.8783 17.512C16.0223 16.528 16.1063 15.556 16.1303 14.596C15.2183 16.732 14.3303 18.484 13.4663 19.852C12.6023 21.196 11.7503 22.252 10.9103 23.02C10.0703 23.788 9.2543 24.316 8.4623 24.604C7.6703 24.892 6.9143 25.036 6.1943 25.036C5.4743 25.036 4.8023 24.928 4.1783 24.712C3.5543 24.472 3.0143 24.16 2.5583 23.776C2.1263 23.368 1.7903 22.9 1.5503 22.372C1.3343 21.82 1.2623 21.232 1.3343 20.608C1.4303 19.576 1.7063 18.796 2.1623 18.268C2.6423 17.716 3.1823 17.332 3.7823 17.116C4.3823 16.876 4.9703 16.78 5.5463 16.828C6.1223 16.852 6.5783 16.924 6.9143 17.044C7.2263 17.188 7.4423 17.38 7.5623 17.62C7.7063 17.86 7.7543 18.088 7.7063 18.304C7.6823 18.52 7.5743 18.688 7.3823 18.808C7.2143 18.928 6.9863 18.928 6.6983 18.808C6.2183 18.616 5.7863 18.592 5.4023 18.736C5.0183 18.856 4.7063 19.072 4.4663 19.384C4.2263 19.672 4.0703 20.02 3.9983 20.428C3.9263 20.836 3.9503 21.232 4.0703 21.616C4.2143 21.976 4.4663 22.288 4.8263 22.552C5.2103 22.792 5.7383 22.912 6.4103 22.912C7.3463 22.912 8.2103 22.54 9.0023 21.796C9.7943 21.052 10.5623 20.068 11.3063 18.844C12.0503 17.596 12.7703 16.192 13.4663 14.632C14.1623 13.072 14.8823 11.476 15.6263 9.844C16.3703 8.188 17.1383 6.568 17.9303 4.984C18.7223 3.4 19.5863 1.984 20.5223 0.735999C20.7383 0.423999 21.0023 0.231998 21.3143 0.159998C21.6503 0.0639992 21.9383 0.0639992 22.1783 0.159998C22.4423 0.255998 22.6103 0.435999 22.6823 0.7C22.7783 0.939999 22.7063 1.24 22.4663 1.6C22.2983 1.84 22.0823 2.26 21.8183 2.86C21.5783 3.46 21.3023 4.168 20.9903 4.984C20.7023 5.8 20.4143 6.7 20.1263 7.684C19.8383 8.644 19.5863 9.616 19.3703 10.6C19.1543 11.56 18.9863 12.496 18.8663 13.408C18.7463 14.296 18.7103 15.088 18.7583 15.784C19.4303 14.752 20.1383 13.696 20.8823 12.616C21.6263 11.512 22.3703 10.444 23.1143 9.412C23.8583 8.356 24.5783 7.348 25.2743 6.388C25.9703 5.404 26.6063 4.54 27.1823 3.796C27.7583 3.028 28.2503 2.392 28.6583 1.888C29.0903 1.36 29.4023 1.012 29.5943 0.844C29.8823 0.603999 30.1943 0.459998 30.5303 0.411999C30.8663 0.339998 31.1543 0.351998 31.3943 0.447999C31.6343 0.543999 31.7783 0.723999 31.8263 0.987998C31.8743 1.228 31.7543 1.54 31.4663 1.924C30.1943 3.724 29.0663 5.5 28.0823 7.252C27.0983 8.98 26.2463 10.624 25.5263 12.184C24.8303 13.72 24.2663 15.148 23.8343 16.468C23.4263 17.764 23.1503 18.892 23.0063 19.852C22.8863 20.788 22.9103 21.532 23.0783 22.084C23.2703 22.612 23.6183 22.876 24.1223 22.876C24.2903 22.876 24.4943 22.84 24.7343 22.768C24.9983 22.672 25.2743 22.552 25.5623 22.408C25.8503 22.264 26.1263 22.096 26.3903 21.904C26.6783 21.712 26.9303 21.508 27.1463 21.292C27.5783 20.86 27.9023 20.524 28.1183 20.284C28.3583 20.02 28.6463 19.684 28.9823 19.276C29.1263 19.06 29.3183 18.952 29.5583 18.952C29.8223 18.928 30.0503 18.976 30.2423 19.096C30.4583 19.192 30.6143 19.336 30.7103 19.528C30.8063 19.72 30.7703 19.924 30.6023 20.14C30.3863 20.428 30.0743 20.824 29.6663 21.328C29.2583 21.808 28.7303 22.36 28.0823 22.984C27.6743 23.368 27.3023 23.692 26.9663 23.956C26.6303 24.22 26.2943 24.436 25.9583 24.604C25.6223 24.772 25.2743 24.892 24.9143 24.964C24.5543 25.036 24.1583 25.072 23.7263 25.072ZM40.41 19.276C40.578 19.06 40.782 18.952 41.022 18.952C41.286 18.928 41.526 18.976 41.742 19.096C41.958 19.192 42.114 19.336 42.21 19.528C42.306 19.72 42.27 19.924 42.102 20.14C41.982 20.284 41.814 20.5 41.598 20.788C41.406 21.052 41.166 21.34 40.878 21.652C40.614 21.964 40.326 22.288 40.014 22.624C39.702 22.96 39.378 23.272 39.042 23.56C38.394 24.136 37.818 24.532 37.314 24.748C36.81 24.964 36.366 25.06 35.982 25.036C35.598 25.012 35.274 24.892 35.01 24.676C34.746 24.46 34.518 24.208 34.326 23.92C33.942 24.16 33.522 24.412 33.066 24.676C32.634 24.94 31.974 25.072 31.086 25.072C30.462 25.072 29.922 24.928 29.466 24.64C29.01 24.352 28.674 23.944 28.458 23.416C28.242 22.888 28.17 22.264 28.242 21.544C28.314 20.8 28.59 19.996 29.07 19.132C29.526 18.268 30.066 17.524 30.69 16.9C31.338 16.252 31.986 15.724 32.634 15.316C33.282 14.908 33.906 14.608 34.506 14.416C35.13 14.224 35.67 14.128 36.126 14.128C36.438 14.128 36.702 14.176 36.918 14.272C37.158 14.344 37.374 14.44 37.566 14.56C37.758 14.68 37.938 14.824 38.106 14.992C38.25 14.704 38.49 14.5 38.826 14.38C39.162 14.236 39.474 14.188 39.762 14.236C40.074 14.26 40.302 14.368 40.446 14.56C40.614 14.752 40.602 15.016 40.41 15.352C40.218 15.736 39.978 16.216 39.69 16.792C39.402 17.344 39.102 17.92 38.79 18.52C38.478 19.096 38.178 19.648 37.89 20.176C37.626 20.68 37.41 21.052 37.242 21.292C37.098 21.556 37.038 21.748 37.062 21.868C37.11 21.964 37.218 22.012 37.386 22.012C37.554 21.988 37.746 21.916 37.962 21.796C38.178 21.676 38.394 21.508 38.61 21.292C39.018 20.86 39.342 20.524 39.582 20.284C39.846 20.02 40.122 19.684 40.41 19.276ZM35.118 20.284C35.478 19.828 35.766 19.372 35.982 18.916C36.222 18.436 36.39 18.004 36.486 17.62C36.606 17.212 36.654 16.864 36.63 16.576C36.606 16.264 36.498 16.036 36.306 15.892C36.114 15.748 35.862 15.712 35.55 15.784C35.262 15.832 34.938 15.964 34.578 16.18C34.242 16.396 33.882 16.684 33.498 17.044C33.138 17.404 32.778 17.812 32.418 18.268C32.058 18.748 31.758 19.216 31.518 19.672C31.278 20.128 31.098 20.56 30.978 20.968C30.882 21.352 30.846 21.7 30.87 22.012C30.918 22.3 31.038 22.516 31.23 22.66C31.398 22.804 31.626 22.852 31.914 22.804C32.226 22.756 32.562 22.624 32.922 22.408C33.282 22.192 33.642 21.904 34.002 21.544C34.386 21.184 34.758 20.764 35.118 20.284ZM40.4238 19.276C40.9038 18.724 41.4198 18.04 41.9718 17.224C42.5238 16.384 43.0278 15.616 43.4838 14.92C43.1958 14.56 42.9678 14.128 42.7998 13.624C42.6558 13.096 42.5718 12.568 42.5478 12.04C42.5478 11.512 42.6198 11.02 42.7638 10.564C42.9078 10.084 43.1598 9.7 43.5198 9.412C44.0478 9.004 44.5518 8.8 45.0318 8.8C45.5118 8.776 45.9198 8.896 46.2558 9.16C46.5918 9.424 46.8318 9.796 46.9758 10.276C47.1438 10.732 47.1798 11.224 47.0838 11.752C47.0358 12.064 46.9158 12.424 46.7238 12.832C46.5318 13.24 46.3038 13.684 46.0398 14.164C46.3278 14.236 46.6518 14.236 47.0118 14.164C47.3958 14.092 47.7198 14.116 47.9838 14.236C48.2478 14.332 48.4518 14.476 48.5958 14.668C48.7398 14.86 48.8118 15.076 48.8118 15.316C48.8118 15.532 48.7398 15.712 48.5958 15.856C48.4998 15.952 48.3078 16.168 48.0198 16.504C47.7318 16.84 47.3958 17.248 47.0118 17.728C46.6518 18.184 46.2798 18.676 45.8958 19.204C45.5118 19.732 45.1758 20.236 44.8878 20.716C44.6238 21.196 44.4198 21.628 44.2758 22.012C44.1558 22.372 44.1798 22.612 44.3478 22.732C44.6118 22.972 44.9838 22.996 45.4638 22.804C45.9438 22.612 46.4478 22.324 46.9758 21.94C47.5038 21.532 48.0198 21.088 48.5238 20.608C49.0278 20.104 49.4358 19.66 49.7478 19.276C49.9158 19.084 50.1198 18.988 50.3598 18.988C50.6238 18.964 50.8518 19 51.0438 19.096C51.2598 19.192 51.4158 19.336 51.5118 19.528C51.6078 19.72 51.5718 19.924 51.4038 20.14C51.0438 20.644 50.5278 21.244 49.8558 21.94C49.2078 22.612 48.4758 23.224 47.6598 23.776C46.8678 24.304 46.0518 24.688 45.2118 24.928C44.3718 25.168 43.5918 25.096 42.8718 24.712C42.2478 24.4 41.8998 23.908 41.8278 23.236C41.7558 22.564 41.8758 21.844 42.1878 21.076C42.4998 20.284 42.9438 19.492 43.5198 18.7C44.0958 17.908 44.7198 17.236 45.3918 16.684C45.5838 16.516 45.6798 16.408 45.6798 16.36C45.7038 16.288 45.4638 16.156 44.9598 15.964C44.3598 16.9 43.7718 17.764 43.1958 18.556C42.6438 19.348 42.2718 19.876 42.0798 20.14C41.8878 20.38 41.6598 20.512 41.3958 20.536C41.1558 20.536 40.9398 20.476 40.7478 20.356C40.5558 20.236 40.4238 20.08 40.3518 19.888C40.2558 19.672 40.2798 19.468 40.4238 19.276ZM45.0318 10.6C44.8398 10.6 44.6838 10.684 44.5638 10.852C44.4678 10.996 44.3958 11.2 44.3478 11.464C44.3238 11.704 44.3358 11.968 44.3838 12.256C44.4318 12.544 44.5278 12.82 44.6718 13.084C44.8158 12.796 44.9478 12.508 45.0678 12.22C45.1878 11.932 45.2718 11.668 45.3198 11.428C45.3678 11.188 45.3678 10.996 45.3198 10.852C45.2718 10.684 45.1758 10.6 45.0318 10.6ZM50.0282 18.592C50.4842 17.8 51.0122 17.104 51.6122 16.504C52.2362 15.88 52.8722 15.376 53.5202 14.992C54.1922 14.608 54.8642 14.368 55.5362 14.272C56.2322 14.176 56.8682 14.236 57.4442 14.452C57.9722 14.668 58.2602 14.992 58.3082 15.424C58.3802 15.856 58.3202 16.324 58.1282 16.828C57.9362 17.308 57.6602 17.776 57.3002 18.232C56.9402 18.664 56.6162 19 56.3282 19.24C56.0642 19.456 55.7882 19.552 55.5002 19.528C55.2362 19.504 55.0082 19.42 54.8162 19.276C54.6242 19.108 54.4922 18.916 54.4202 18.7C54.3482 18.484 54.3962 18.304 54.5642 18.16C54.7322 17.992 54.9362 17.788 55.1762 17.548C55.4162 17.308 55.6202 17.08 55.7882 16.864C55.9562 16.624 56.0522 16.432 56.0762 16.288C56.1002 16.12 55.9922 16.036 55.7522 16.036C55.5122 16.036 55.2362 16.132 54.9242 16.324C54.6122 16.492 54.2882 16.744 53.9522 17.08C53.6162 17.392 53.2802 17.764 52.9442 18.196C52.6082 18.628 52.2962 19.096 52.0082 19.6C51.6482 20.248 51.4922 20.824 51.5402 21.328C51.6122 21.832 51.8282 22.228 52.1882 22.516C52.5482 22.78 53.0282 22.9 53.6282 22.876C54.2282 22.828 54.9002 22.576 55.6442 22.12C55.9322 21.952 56.2322 21.748 56.5442 21.508C56.8562 21.268 57.1562 21.016 57.4442 20.752C57.7322 20.488 57.9962 20.236 58.2362 19.996C58.4762 19.732 58.6802 19.492 58.8482 19.276C58.9922 19.06 59.1842 18.952 59.4242 18.952C59.6642 18.928 59.8802 18.964 60.0722 19.06C60.2882 19.156 60.4442 19.312 60.5402 19.528C60.6362 19.72 60.6122 19.924 60.4682 20.14C60.3242 20.356 60.1322 20.608 59.8922 20.896C59.6522 21.16 59.3762 21.448 59.0642 21.76C58.7522 22.072 58.4162 22.384 58.0562 22.696C57.7202 23.008 57.3722 23.296 57.0122 23.56C56.3162 24.112 55.5962 24.496 54.8522 24.712C54.1322 24.928 53.4482 25.024 52.8002 25C52.1522 25 51.5762 24.904 51.0722 24.712C50.5682 24.496 50.1962 24.232 49.9562 23.92C49.6682 23.56 49.4762 23.152 49.3802 22.696C49.2602 22.216 49.2242 21.736 49.2722 21.256C49.2962 20.776 49.3802 20.308 49.5242 19.852C49.6442 19.396 49.8122 18.976 50.0282 18.592Z" fill="#FFF5F5"/>
</g>
<defs>
<filter id="filter0_ddii" x="0.307129" y="0.0878906" width="61.2905" height="26.984" filterUnits="userSpaceOnUse" color-interpolation-filters="sRGB">
<feFlood flood-opacity="0" result="BackgroundImageFix"/>
<feColorMatrix in="SourceAlpha" type="matrix" values="0 0 0 0 0 0 0 0 0 0 0 0 0 0 0 0 0 0 127 0"/>
<feOffset dy="1"/>
<feGaussianBlur stdDeviation="0.5"/>
<feColorMatrix type="matrix" values="0 0 0 0 0.175 0 0 0 0 0.030625 0 0 0 0 0.030625 0 0 0 0.4 0"/>
<feBlend mode="normal" in2="BackgroundImageFix" result="effect1_dropShadow"/>
<feColorMatrix in="SourceAlpha" type="matrix" values="0 0 0 0 0 0 0 0 0 0 0 0 0 0 0 0 0 0 127 0"/>
<feOffset dy="1"/>
<feGaussianBlur stdDeviation="0.5"/>
<feColorMatrix type="matrix" values="0 0 0 0 0.2 0 0 0 0 0.03 0 0 0 0 0.03 0 0 0 0.7 0"/>
<feBlend mode="normal" in2="effect1_dropShadow" result="effect2_dropShadow"/>
<feBlend mode="normal" in="SourceGraphic" in2="effect2_dropShadow" result="shape"/>
<feColorMatrix in="SourceAlpha" type="matrix" values="0 0 0 0 0 0 0 0 0 0 0 0 0 0 0 0 0 0 127 0" result="hardAlpha"/>
<feOffset dy="0.5"/>
<feGaussianBlur stdDeviation="0.25"/>
<feComposite in2="hardAlpha" operator="arithmetic" k2="-1" k3="1"/>
<feColorMatrix type="matrix" values="0 0 0 0 0.9375 0 0 0 0 0.9375 0 0 0 0 0.9375 0 0 0 1 0"/>
<feBlend mode="normal" in2="shape" result="effect3_innerShadow"/>
<feColorMatrix in="SourceAlpha" type="matrix" values="0 0 0 0 0 0 0 0 0 0 0 0 0 0 0 0 0 0 127 0" result="hardAlpha"/>
<feOffset dy="-0.5"/>
<feComposite in2="hardAlpha" operator="arithmetic" k2="-1" k3="1"/>
<feColorMatrix type="matrix" values="0 0 0 0 0.191667 0 0 0 0 0.0359375 0 0 0 0 0.0359375 0 0 0 0.45 0"/>
<feBlend mode="normal" in2="effect3_innerShadow" result="effect4_innerShadow"/>
</filter>
</defs>
</svg>
